<mxfile host="Electron" agent="Mozilla/5.0 (Windows NT 10.0; Win64; x64) AppleWebKit/537.36 (KHTML, like Gecko) draw.io/26.2.15 Chrome/134.0.6998.205 Electron/35.2.1 Safari/537.36" version="26.2.15">
  <diagram name="Page-1" id="1jRxc-TqemJTofgT7No7">
    <mxGraphModel dx="2745" dy="1153" grid="1" gridSize="10" guides="1" tooltips="1" connect="1" arrows="1" fold="1" page="1" pageScale="1" pageWidth="850" pageHeight="1100" math="0" shadow="0">
      <root>
        <mxCell id="0" />
        <mxCell id="1" parent="0" />
        <mxCell id="J3J6T2Nlb2btmMFrzNH1-4" value="&lt;font style=&quot;font-size: 16px;&quot;&gt;&lt;b&gt;&lt;span style=&quot;white-space: pre;&quot;&gt;&#x9;&lt;/span&gt;User Credential Database&lt;/b&gt;&lt;/font&gt;" style="html=1;dashed=0;whiteSpace=wrap;shape=mxgraph.dfd.dataStoreID;align=left;spacingLeft=3;points=[[0,0],[0.5,0],[1,0],[0,0.5],[1,0.5],[0,1],[0.5,1],[1,1]];labelBackgroundColor=none;fillColor=#A8DADC;strokeColor=#457B9D;fontColor=#1D3557;gradientColor=#FFFFFF;gradientDirection=east;" parent="1" vertex="1">
          <mxGeometry x="-658" y="1690" width="236" height="30" as="geometry" />
        </mxCell>
        <mxCell id="J3J6T2Nlb2btmMFrzNH1-5" value="&lt;span style=&quot;font-size: 16px;&quot;&gt;&lt;b&gt;Admin&lt;/b&gt;&lt;/span&gt;" style="rounded=0;whiteSpace=wrap;html=1;labelBackgroundColor=none;fillColor=#A8DADC;strokeColor=#457B9D;fontColor=#1D3557;gradientColor=#FFFFFF;gradientDirection=radial;glass=0;" parent="1" vertex="1">
          <mxGeometry x="-600" y="2150" width="120" height="60" as="geometry" />
        </mxCell>
        <mxCell id="PQpoZB7mIxRik_c6S127-52" style="edgeStyle=orthogonalEdgeStyle;rounded=0;orthogonalLoop=1;jettySize=auto;html=1;exitX=1;exitY=0.5;exitDx=0;exitDy=0;entryX=0;entryY=1;entryDx=0;entryDy=0;" parent="1" source="J3J6T2Nlb2btmMFrzNH1-13" target="J3J6T2Nlb2btmMFrzNH1-15" edge="1">
          <mxGeometry relative="1" as="geometry">
            <Array as="points">
              <mxPoint x="160" y="2382" />
              <mxPoint x="160" y="2290" />
            </Array>
          </mxGeometry>
        </mxCell>
        <mxCell id="J3J6T2Nlb2btmMFrzNH1-13" value="7" style="swimlane;whiteSpace=wrap;html=1;rounded=1;startSize=23;labelBackgroundColor=none;fillColor=#A8DADC;strokeColor=#457B9D;fontColor=#1D3557;gradientColor=#ffffff;gradientDirection=south;glass=0;" parent="1" vertex="1">
          <mxGeometry x="-340" y="2340" width="160" height="85" as="geometry" />
        </mxCell>
        <mxCell id="J3J6T2Nlb2btmMFrzNH1-14" value="&lt;font&gt;Check Statistics&lt;/font&gt;" style="text;html=1;align=center;verticalAlign=middle;resizable=0;points=[];autosize=1;strokeColor=none;fillColor=none;labelBackgroundColor=none;fontColor=#1D3557;fontSize=15;fontStyle=1" parent="J3J6T2Nlb2btmMFrzNH1-13" vertex="1">
          <mxGeometry x="17" y="32.5" width="130" height="30" as="geometry" />
        </mxCell>
        <mxCell id="J3J6T2Nlb2btmMFrzNH1-15" value="&lt;font style=&quot;font-size: 15px;&quot;&gt;&lt;b&gt;&lt;span style=&quot;white-space: pre;&quot;&gt;&#x9;&lt;/span&gt;&amp;nbsp; &amp;nbsp; &amp;nbsp;Logs Database&lt;/b&gt;&lt;/font&gt;" style="html=1;dashed=0;whiteSpace=wrap;shape=mxgraph.dfd.dataStoreID;align=left;spacingLeft=3;points=[[0,0],[0.5,0],[1,0],[0,0.5],[1,0.5],[0,1],[0.5,1],[1,1]];labelBackgroundColor=none;fillColor=#A8DADC;strokeColor=#457B9D;fontColor=#1D3557;gradientColor=#FFFFFF;gradientDirection=east;" parent="1" vertex="1">
          <mxGeometry x="360" y="2255" width="240" height="35" as="geometry" />
        </mxCell>
        <mxCell id="PQpoZB7mIxRik_c6S127-58" style="edgeStyle=orthogonalEdgeStyle;rounded=0;orthogonalLoop=1;jettySize=auto;html=1;exitX=1;exitY=0.5;exitDx=0;exitDy=0;entryX=0;entryY=1;entryDx=0;entryDy=0;" parent="1" source="J3J6T2Nlb2btmMFrzNH1-23" target="J3J6T2Nlb2btmMFrzNH1-45" edge="1">
          <mxGeometry relative="1" as="geometry">
            <Array as="points">
              <mxPoint x="320" y="1383" />
              <mxPoint x="320" y="1340" />
            </Array>
          </mxGeometry>
        </mxCell>
        <mxCell id="J3J6T2Nlb2btmMFrzNH1-23" value="2.2" style="swimlane;whiteSpace=wrap;html=1;rounded=1;startSize=23;labelBackgroundColor=none;fillColor=#A8DADC;strokeColor=#457B9D;fontColor=#1D3557;gradientColor=#FFFFFF;" parent="1" vertex="1">
          <mxGeometry x="90" y="1340" width="120" height="85" as="geometry" />
        </mxCell>
        <mxCell id="J3J6T2Nlb2btmMFrzNH1-42" value="&lt;font&gt;Remove IP&lt;/font&gt;" style="text;html=1;align=center;verticalAlign=middle;resizable=0;points=[];autosize=1;strokeColor=none;fillColor=none;labelBackgroundColor=none;fontColor=#1D3557;fontSize=15;fontStyle=1" parent="J3J6T2Nlb2btmMFrzNH1-23" vertex="1">
          <mxGeometry x="10" y="38" width="100" height="30" as="geometry" />
        </mxCell>
        <mxCell id="PQpoZB7mIxRik_c6S127-57" style="edgeStyle=orthogonalEdgeStyle;rounded=0;orthogonalLoop=1;jettySize=auto;html=1;exitX=1;exitY=0.5;exitDx=0;exitDy=0;entryX=0;entryY=0;entryDx=0;entryDy=0;" parent="1" source="J3J6T2Nlb2btmMFrzNH1-24" target="J3J6T2Nlb2btmMFrzNH1-45" edge="1">
          <mxGeometry relative="1" as="geometry">
            <Array as="points">
              <mxPoint x="320" y="1273" />
              <mxPoint x="320" y="1310" />
            </Array>
          </mxGeometry>
        </mxCell>
        <mxCell id="J3J6T2Nlb2btmMFrzNH1-24" value="2.1" style="swimlane;whiteSpace=wrap;html=1;rounded=1;startSize=23;labelBackgroundColor=none;fillColor=#b0e3e6;strokeColor=#0e8088;gradientColor=#FFFFFF;" parent="1" vertex="1">
          <mxGeometry x="90" y="1230" width="120" height="85" as="geometry" />
        </mxCell>
        <mxCell id="J3J6T2Nlb2btmMFrzNH1-44" value="&lt;font&gt;Add IP&lt;/font&gt;" style="text;html=1;align=center;verticalAlign=middle;resizable=0;points=[];autosize=1;strokeColor=none;fillColor=none;labelBackgroundColor=none;fontColor=#1D3557;fontSize=15;fontStyle=1" parent="J3J6T2Nlb2btmMFrzNH1-24" vertex="1">
          <mxGeometry x="26" y="39" width="70" height="30" as="geometry" />
        </mxCell>
        <mxCell id="PQpoZB7mIxRik_c6S127-37" style="edgeStyle=orthogonalEdgeStyle;rounded=0;orthogonalLoop=1;jettySize=auto;html=1;exitX=1;exitY=0.25;exitDx=0;exitDy=0;" parent="1" edge="1">
          <mxGeometry relative="1" as="geometry">
            <mxPoint x="-180" y="1306.84" as="sourcePoint" />
            <mxPoint x="90" y="1280" as="targetPoint" />
            <Array as="points">
              <mxPoint x="-40" y="1307" />
              <mxPoint x="-40" y="1280" />
              <mxPoint x="90" y="1280" />
            </Array>
          </mxGeometry>
        </mxCell>
        <mxCell id="PQpoZB7mIxRik_c6S127-38" style="edgeStyle=orthogonalEdgeStyle;rounded=0;orthogonalLoop=1;jettySize=auto;html=1;exitX=1.007;exitY=0.995;exitDx=0;exitDy=0;exitPerimeter=0;" parent="1" source="J3J6T2Nlb2btmMFrzNH1-40" edge="1">
          <mxGeometry relative="1" as="geometry">
            <mxPoint x="-180" y="1315" as="sourcePoint" />
            <mxPoint x="90" y="1390" as="targetPoint" />
            <Array as="points">
              <mxPoint x="-40" y="1340" />
              <mxPoint x="-40" y="1390" />
            </Array>
          </mxGeometry>
        </mxCell>
        <mxCell id="J3J6T2Nlb2btmMFrzNH1-25" value="2" style="swimlane;whiteSpace=wrap;html=1;rounded=1;startSize=23;labelBackgroundColor=none;fillColor=#A8DADC;strokeColor=#457B9D;fontColor=#1D3557;gradientColor=#FFFFFF;" parent="1" vertex="1">
          <mxGeometry x="-340" y="1270.5" width="165" height="85" as="geometry" />
        </mxCell>
        <mxCell id="J3J6T2Nlb2btmMFrzNH1-40" value="&lt;font&gt;Check Whitelisted IP&#39;s&lt;/font&gt;" style="text;html=1;align=center;verticalAlign=middle;resizable=0;points=[];autosize=1;strokeColor=none;fillColor=none;labelBackgroundColor=none;fontColor=#1D3557;fontSize=15;fontStyle=1" parent="J3J6T2Nlb2btmMFrzNH1-25" vertex="1">
          <mxGeometry x="-5" y="40" width="170" height="30" as="geometry" />
        </mxCell>
        <mxCell id="PQpoZB7mIxRik_c6S127-56" style="edgeStyle=orthogonalEdgeStyle;rounded=0;orthogonalLoop=1;jettySize=auto;html=1;exitX=1;exitY=0.5;exitDx=0;exitDy=0;entryX=0;entryY=1;entryDx=0;entryDy=0;" parent="1" source="J3J6T2Nlb2btmMFrzNH1-26" target="J3J6T2Nlb2btmMFrzNH1-49" edge="1">
          <mxGeometry relative="1" as="geometry">
            <Array as="points">
              <mxPoint x="310" y="1153" />
              <mxPoint x="310" y="1115" />
            </Array>
          </mxGeometry>
        </mxCell>
        <mxCell id="J3J6T2Nlb2btmMFrzNH1-26" value="1.2" style="swimlane;whiteSpace=wrap;html=1;rounded=1;startSize=23;movable=1;resizable=1;rotatable=1;deletable=1;editable=1;locked=0;connectable=1;labelBackgroundColor=none;fillColor=#A8DADC;strokeColor=#457B9D;fontColor=#1D3557;gradientColor=#FFFFFF;" parent="1" vertex="1">
          <mxGeometry x="90" y="1110" width="120" height="85" as="geometry" />
        </mxCell>
        <mxCell id="J3J6T2Nlb2btmMFrzNH1-43" value="&lt;font&gt;Remove IP&lt;/font&gt;" style="text;html=1;align=center;verticalAlign=middle;resizable=1;points=[];autosize=1;strokeColor=none;fillColor=none;movable=1;rotatable=1;deletable=1;editable=1;locked=0;connectable=1;labelBackgroundColor=none;fontColor=#1D3557;fontSize=15;fontStyle=1" parent="J3J6T2Nlb2btmMFrzNH1-26" vertex="1">
          <mxGeometry x="10" y="39" width="100" height="30" as="geometry" />
        </mxCell>
        <mxCell id="PQpoZB7mIxRik_c6S127-55" style="edgeStyle=orthogonalEdgeStyle;rounded=0;orthogonalLoop=1;jettySize=auto;html=1;exitX=1;exitY=0.5;exitDx=0;exitDy=0;entryX=0;entryY=0.167;entryDx=0;entryDy=0;entryPerimeter=0;" parent="1" source="J3J6T2Nlb2btmMFrzNH1-27" target="J3J6T2Nlb2btmMFrzNH1-49" edge="1">
          <mxGeometry relative="1" as="geometry">
            <Array as="points">
              <mxPoint x="310" y="1043" />
              <mxPoint x="310" y="1090" />
            </Array>
          </mxGeometry>
        </mxCell>
        <mxCell id="J3J6T2Nlb2btmMFrzNH1-27" value="1.1" style="swimlane;whiteSpace=wrap;html=1;rounded=1;startSize=23;labelBackgroundColor=none;fillColor=#A8DADC;strokeColor=#457B9D;fontColor=#1D3557;gradientColor=#FFFFFF;" parent="1" vertex="1">
          <mxGeometry x="90" y="1000" width="120" height="85" as="geometry" />
        </mxCell>
        <mxCell id="J3J6T2Nlb2btmMFrzNH1-41" value="&lt;font&gt;Add IP&lt;/font&gt;" style="text;html=1;align=center;verticalAlign=middle;resizable=0;points=[];autosize=1;strokeColor=none;fillColor=none;labelBackgroundColor=none;fontColor=#1D3557;fontSize=15;fontStyle=1" parent="J3J6T2Nlb2btmMFrzNH1-27" vertex="1">
          <mxGeometry x="22" y="39" width="70" height="30" as="geometry" />
        </mxCell>
        <mxCell id="J3J6T2Nlb2btmMFrzNH1-45" value="&lt;span style=&quot;text-align: center; text-wrap-mode: nowrap;&quot;&gt;&lt;font style=&quot;font-size: 15px;&quot;&gt;&lt;b&gt;&amp;nbsp; &amp;nbsp; &amp;nbsp; &amp;nbsp;Whitelisted IP&#39;s Database&lt;/b&gt;&lt;/font&gt;&lt;/span&gt;" style="html=1;dashed=0;whiteSpace=wrap;shape=mxgraph.dfd.dataStoreID;align=left;spacingLeft=3;points=[[0,0],[0.5,0],[1,0],[0,0.5],[1,0.5],[0,1],[0.5,1],[1,1]];labelBackgroundColor=none;fillColor=#A8DADC;strokeColor=#457B9D;fontColor=#1D3557;gradientColor=#FFFFFF;gradientDirection=east;" parent="1" vertex="1">
          <mxGeometry x="380" y="1310" width="220" height="30" as="geometry" />
        </mxCell>
        <mxCell id="J3J6T2Nlb2btmMFrzNH1-49" value="&lt;span style=&quot;text-align: center; text-wrap-mode: nowrap;&quot;&gt;&lt;font style=&quot;font-size: 15px;&quot;&gt;&lt;b&gt;&amp;nbsp; &amp;nbsp; &amp;nbsp; &amp;nbsp;Blacklisted IP&#39;s Database&lt;/b&gt;&lt;/font&gt;&lt;/span&gt;" style="html=1;dashed=0;whiteSpace=wrap;shape=mxgraph.dfd.dataStoreID;align=left;spacingLeft=3;points=[[0,0],[0.5,0],[1,0],[0,0.5],[1,0.5],[0,1],[0.5,1],[1,1]];labelBackgroundColor=none;fillColor=#A8DADC;strokeColor=#457B9D;fontColor=#1D3557;gradientColor=#FFFFFF;gradientDirection=east;" parent="1" vertex="1">
          <mxGeometry x="380" y="1085" width="220" height="30" as="geometry" />
        </mxCell>
        <mxCell id="PQpoZB7mIxRik_c6S127-50" style="edgeStyle=orthogonalEdgeStyle;rounded=0;orthogonalLoop=1;jettySize=auto;html=1;exitX=1;exitY=0.5;exitDx=0;exitDy=0;entryX=0;entryY=0;entryDx=0;entryDy=0;" parent="1" source="J3J6T2Nlb2btmMFrzNH1-60" target="J3J6T2Nlb2btmMFrzNH1-15" edge="1">
          <mxGeometry relative="1" as="geometry">
            <Array as="points">
              <mxPoint x="160" y="2157" />
              <mxPoint x="160" y="2255" />
            </Array>
          </mxGeometry>
        </mxCell>
        <mxCell id="J3J6T2Nlb2btmMFrzNH1-60" value="5" style="swimlane;whiteSpace=wrap;html=1;rounded=1;startSize=23;labelBackgroundColor=none;fillColor=#A8DADC;strokeColor=#457B9D;fontColor=#1D3557;gradientColor=#FFFFFF;" parent="1" vertex="1">
          <mxGeometry x="-340" y="2115" width="160" height="85" as="geometry" />
        </mxCell>
        <mxCell id="J3J6T2Nlb2btmMFrzNH1-67" value="&lt;font style=&quot;font-size: 15px;&quot;&gt;&lt;b&gt;Check Logs&lt;/b&gt;&lt;/font&gt;" style="text;html=1;align=center;verticalAlign=middle;resizable=0;points=[];autosize=1;strokeColor=none;fillColor=none;labelBackgroundColor=none;fontColor=#1D3557;" parent="J3J6T2Nlb2btmMFrzNH1-60" vertex="1">
          <mxGeometry x="25" y="32.5" width="110" height="30" as="geometry" />
        </mxCell>
        <mxCell id="J3J6T2Nlb2btmMFrzNH1-68" value="10" style="swimlane;whiteSpace=wrap;html=1;rounded=1;startSize=23;labelBackgroundColor=none;fillColor=#A8DADC;strokeColor=#457B9D;fontColor=#1D3557;gradientColor=#FFFFFF;" parent="1" vertex="1">
          <mxGeometry x="-340" y="2670" width="160" height="85" as="geometry" />
        </mxCell>
        <mxCell id="J3J6T2Nlb2btmMFrzNH1-69" value="&lt;font&gt;Logout&lt;/font&gt;" style="text;html=1;align=center;verticalAlign=middle;resizable=0;points=[];autosize=1;strokeColor=none;fillColor=none;labelBackgroundColor=none;fontColor=#1D3557;fontSize=15;fontStyle=1" parent="J3J6T2Nlb2btmMFrzNH1-68" vertex="1">
          <mxGeometry x="47" y="32.5" width="70" height="30" as="geometry" />
        </mxCell>
        <mxCell id="PQpoZB7mIxRik_c6S127-53" style="edgeStyle=orthogonalEdgeStyle;rounded=0;orthogonalLoop=1;jettySize=auto;html=1;exitX=1;exitY=0.5;exitDx=0;exitDy=0;" parent="1" source="kPvUlYXXvgPYuYJNT18Q-3" target="kPvUlYXXvgPYuYJNT18Q-11" edge="1">
          <mxGeometry relative="1" as="geometry" />
        </mxCell>
        <mxCell id="kPvUlYXXvgPYuYJNT18Q-3" value="8" style="swimlane;whiteSpace=wrap;html=1;rounded=1;startSize=23;labelBackgroundColor=none;fillColor=#A8DADC;strokeColor=#457B9D;fontColor=#1D3557;gradientColor=#ffffff;gradientDirection=south;glass=0;" parent="1" vertex="1">
          <mxGeometry x="-340" y="2450" width="160" height="85" as="geometry" />
        </mxCell>
        <mxCell id="kPvUlYXXvgPYuYJNT18Q-4" value="&lt;font&gt;View Agents&lt;/font&gt;" style="text;html=1;align=center;verticalAlign=middle;resizable=0;points=[];autosize=1;strokeColor=none;fillColor=none;labelBackgroundColor=none;fontColor=#1D3557;fontSize=15;fontStyle=1" parent="kPvUlYXXvgPYuYJNT18Q-3" vertex="1">
          <mxGeometry x="27" y="32.5" width="110" height="30" as="geometry" />
        </mxCell>
        <mxCell id="PQpoZB7mIxRik_c6S127-54" style="edgeStyle=orthogonalEdgeStyle;rounded=0;orthogonalLoop=1;jettySize=auto;html=1;exitX=1;exitY=0.5;exitDx=0;exitDy=0;" parent="1" source="kPvUlYXXvgPYuYJNT18Q-5" target="kPvUlYXXvgPYuYJNT18Q-12" edge="1">
          <mxGeometry relative="1" as="geometry" />
        </mxCell>
        <mxCell id="kPvUlYXXvgPYuYJNT18Q-5" value="9" style="swimlane;whiteSpace=wrap;html=1;rounded=1;startSize=23;labelBackgroundColor=none;fillColor=#A8DADC;strokeColor=#457B9D;fontColor=#1D3557;gradientColor=#ffffff;gradientDirection=south;glass=0;" parent="1" vertex="1">
          <mxGeometry x="-340" y="2560" width="162" height="85" as="geometry" />
        </mxCell>
        <mxCell id="kPvUlYXXvgPYuYJNT18Q-6" value="&lt;font&gt;View Wazuh Alerts&lt;/font&gt;" style="text;html=1;align=center;verticalAlign=middle;resizable=0;points=[];autosize=1;strokeColor=none;fillColor=none;labelBackgroundColor=none;fontColor=#1D3557;fontSize=15;fontStyle=1" parent="kPvUlYXXvgPYuYJNT18Q-5" vertex="1">
          <mxGeometry x="7" y="32.5" width="150" height="30" as="geometry" />
        </mxCell>
        <mxCell id="kPvUlYXXvgPYuYJNT18Q-11" value="&lt;font style=&quot;font-size: 15px;&quot;&gt;&lt;b&gt;&lt;span style=&quot;white-space: pre;&quot;&gt;&#x9;&lt;/span&gt;Agent&amp;nbsp;Database&lt;/b&gt;&lt;/font&gt;" style="html=1;dashed=0;whiteSpace=wrap;shape=mxgraph.dfd.dataStoreID;align=left;spacingLeft=3;points=[[0,0],[0.5,0],[1,0],[0,0.5],[1,0.5],[0,1],[0.5,1],[1,1]];labelBackgroundColor=none;fillColor=#A8DADC;strokeColor=#457B9D;fontColor=#1D3557;gradientColor=#FFFFFF;gradientDirection=east;" parent="1" vertex="1">
          <mxGeometry x="398.75" y="2477.5" width="181.25" height="30" as="geometry" />
        </mxCell>
        <mxCell id="kPvUlYXXvgPYuYJNT18Q-12" value="&lt;font style=&quot;font-size: 15px;&quot;&gt;&lt;b&gt;&lt;span style=&quot;white-space: pre;&quot;&gt;&#x9;&lt;/span&gt;&lt;span style=&quot;text-align: center; text-wrap-mode: nowrap;&quot;&gt;&amp;nbsp;Wazuh Alerts Logs&lt;/span&gt;&amp;nbsp;&lt;/b&gt;&lt;/font&gt;" style="html=1;dashed=0;whiteSpace=wrap;shape=mxgraph.dfd.dataStoreID;align=left;spacingLeft=3;points=[[0,0],[0.5,0],[1,0],[0,0.5],[1,0.5],[0,1],[0.5,1],[1,1]];labelBackgroundColor=none;fillColor=#A8DADC;strokeColor=#457B9D;fontColor=#1D3557;gradientColor=#FFFFFF;gradientDirection=east;" parent="1" vertex="1">
          <mxGeometry x="382" y="2585" width="218" height="35" as="geometry" />
        </mxCell>
        <mxCell id="PQpoZB7mIxRik_c6S127-51" style="edgeStyle=orthogonalEdgeStyle;rounded=0;orthogonalLoop=1;jettySize=auto;html=1;exitX=1;exitY=0.5;exitDx=0;exitDy=0;entryX=0;entryY=0.5;entryDx=0;entryDy=0;" parent="1" source="PZYcjQ5eOafzSe-c74F2-1" target="J3J6T2Nlb2btmMFrzNH1-15" edge="1">
          <mxGeometry relative="1" as="geometry" />
        </mxCell>
        <mxCell id="PZYcjQ5eOafzSe-c74F2-1" value="6" style="swimlane;whiteSpace=wrap;html=1;rounded=1;startSize=23;labelBackgroundColor=none;fillColor=#A8DADC;strokeColor=#457B9D;fontColor=#1D3557;gradientColor=#FFFFFF;" parent="1" vertex="1">
          <mxGeometry x="-340" y="2230" width="160" height="85" as="geometry" />
        </mxCell>
        <mxCell id="PZYcjQ5eOafzSe-c74F2-2" value="&lt;font&gt;Search Logs&lt;/font&gt;" style="text;html=1;align=center;verticalAlign=middle;resizable=0;points=[];autosize=1;strokeColor=none;fillColor=none;labelBackgroundColor=none;fontColor=#1D3557;fontSize=15;fontStyle=1" parent="PZYcjQ5eOafzSe-c74F2-1" vertex="1">
          <mxGeometry x="25" y="32.5" width="110" height="30" as="geometry" />
        </mxCell>
        <mxCell id="PQpoZB7mIxRik_c6S127-64" style="edgeStyle=orthogonalEdgeStyle;rounded=0;orthogonalLoop=1;jettySize=auto;html=1;exitX=1;exitY=0.5;exitDx=0;exitDy=0;entryX=-0.005;entryY=0.886;entryDx=0;entryDy=0;entryPerimeter=0;" parent="1" source="PZYcjQ5eOafzSe-c74F2-12" target="PZYcjQ5eOafzSe-c74F2-28" edge="1">
          <mxGeometry relative="1" as="geometry">
            <mxPoint x="390" y="1980" as="targetPoint" />
            <Array as="points">
              <mxPoint x="320" y="2072" />
              <mxPoint x="320" y="1974" />
            </Array>
          </mxGeometry>
        </mxCell>
        <mxCell id="PZYcjQ5eOafzSe-c74F2-12" value="4.3" style="swimlane;whiteSpace=wrap;html=1;rounded=1;startSize=23;labelBackgroundColor=none;fillColor=#A8DADC;strokeColor=#457B9D;fontColor=#1D3557;gradientColor=#FFFFFF;" parent="1" vertex="1">
          <mxGeometry x="86.5" y="2030" width="120" height="85" as="geometry" />
        </mxCell>
        <mxCell id="PZYcjQ5eOafzSe-c74F2-13" value="&lt;span&gt;Delete User&lt;/span&gt;" style="text;html=1;align=center;verticalAlign=middle;resizable=0;points=[];autosize=1;strokeColor=none;fillColor=none;labelBackgroundColor=none;fontColor=#1D3557;fontSize=15;fontStyle=1" parent="PZYcjQ5eOafzSe-c74F2-12" vertex="1">
          <mxGeometry x="10" y="38" width="100" height="30" as="geometry" />
        </mxCell>
        <mxCell id="PQpoZB7mIxRik_c6S127-62" style="edgeStyle=orthogonalEdgeStyle;rounded=0;orthogonalLoop=1;jettySize=auto;html=1;exitX=1;exitY=0.5;exitDx=0;exitDy=0;entryX=-0.004;entryY=0.1;entryDx=0;entryDy=0;entryPerimeter=0;" parent="1" source="PZYcjQ5eOafzSe-c74F2-14" target="PZYcjQ5eOafzSe-c74F2-28" edge="1">
          <mxGeometry relative="1" as="geometry">
            <mxPoint x="370" y="1948" as="targetPoint" />
            <Array as="points">
              <mxPoint x="320" y="1852" />
              <mxPoint x="320" y="1950" />
            </Array>
          </mxGeometry>
        </mxCell>
        <mxCell id="PZYcjQ5eOafzSe-c74F2-14" value="4.1" style="swimlane;whiteSpace=wrap;html=1;rounded=1;startSize=23;labelBackgroundColor=none;fillColor=#b0e3e6;strokeColor=#0e8088;gradientColor=#FFFFFF;" parent="1" vertex="1">
          <mxGeometry x="86.5" y="1810" width="120" height="85" as="geometry" />
        </mxCell>
        <mxCell id="PZYcjQ5eOafzSe-c74F2-15" value="&lt;font&gt;Add Users&lt;/font&gt;" style="text;html=1;align=center;verticalAlign=middle;resizable=0;points=[];autosize=1;strokeColor=none;fillColor=none;labelBackgroundColor=none;fontColor=#1D3557;fontSize=15;fontStyle=1" parent="PZYcjQ5eOafzSe-c74F2-14" vertex="1">
          <mxGeometry x="16" y="39" width="90" height="30" as="geometry" />
        </mxCell>
        <mxCell id="PQpoZB7mIxRik_c6S127-43" style="edgeStyle=orthogonalEdgeStyle;rounded=0;orthogonalLoop=1;jettySize=auto;html=1;exitX=1;exitY=0.25;exitDx=0;exitDy=0;entryX=0;entryY=0.5;entryDx=0;entryDy=0;" parent="1" source="PZYcjQ5eOafzSe-c74F2-16" target="PZYcjQ5eOafzSe-c74F2-14" edge="1">
          <mxGeometry relative="1" as="geometry" />
        </mxCell>
        <mxCell id="PQpoZB7mIxRik_c6S127-45" style="edgeStyle=orthogonalEdgeStyle;rounded=0;orthogonalLoop=1;jettySize=auto;html=1;exitX=1;exitY=0.75;exitDx=0;exitDy=0;entryX=0;entryY=0.5;entryDx=0;entryDy=0;" parent="1" source="PZYcjQ5eOafzSe-c74F2-16" target="PZYcjQ5eOafzSe-c74F2-12" edge="1">
          <mxGeometry relative="1" as="geometry">
            <Array as="points">
              <mxPoint x="-180" y="1970" />
              <mxPoint x="-47" y="1970" />
              <mxPoint x="-47" y="2073" />
            </Array>
          </mxGeometry>
        </mxCell>
        <mxCell id="PQpoZB7mIxRik_c6S127-49" style="edgeStyle=orthogonalEdgeStyle;rounded=0;orthogonalLoop=1;jettySize=auto;html=1;exitX=1;exitY=0.5;exitDx=0;exitDy=0;entryX=0;entryY=0.5;entryDx=0;entryDy=0;" parent="1" source="PZYcjQ5eOafzSe-c74F2-16" target="PZYcjQ5eOafzSe-c74F2-47" edge="1">
          <mxGeometry relative="1" as="geometry" />
        </mxCell>
        <mxCell id="PZYcjQ5eOafzSe-c74F2-16" value="4" style="swimlane;whiteSpace=wrap;html=1;rounded=1;startSize=23;labelBackgroundColor=none;fillColor=#A8DADC;strokeColor=#457B9D;fontColor=#1D3557;gradientColor=#FFFFFF;" parent="1" vertex="1">
          <mxGeometry x="-340" y="1895" width="160" height="85" as="geometry" />
        </mxCell>
        <mxCell id="PZYcjQ5eOafzSe-c74F2-17" value="&lt;b style=&quot;&quot;&gt;&lt;font style=&quot;font-size: 15px;&quot;&gt;User Management&lt;/font&gt;&lt;/b&gt;" style="text;html=1;align=center;verticalAlign=middle;resizable=0;points=[];autosize=1;strokeColor=none;fillColor=none;labelBackgroundColor=none;fontColor=#1D3557;" parent="PZYcjQ5eOafzSe-c74F2-16" vertex="1">
          <mxGeometry x="5" y="40" width="150" height="30" as="geometry" />
        </mxCell>
        <mxCell id="PQpoZB7mIxRik_c6S127-61" style="edgeStyle=orthogonalEdgeStyle;rounded=0;orthogonalLoop=1;jettySize=auto;html=1;exitX=1;exitY=0.5;exitDx=0;exitDy=0;entryX=0;entryY=1;entryDx=0;entryDy=0;" parent="1" source="PZYcjQ5eOafzSe-c74F2-18" target="PZYcjQ5eOafzSe-c74F2-31" edge="1">
          <mxGeometry relative="1" as="geometry">
            <mxPoint x="390" y="1670" as="targetPoint" />
            <Array as="points">
              <mxPoint x="320" y="1733" />
              <mxPoint x="320" y="1638" />
            </Array>
          </mxGeometry>
        </mxCell>
        <mxCell id="PZYcjQ5eOafzSe-c74F2-18" value="3.3" style="swimlane;whiteSpace=wrap;html=1;rounded=1;startSize=23;movable=1;resizable=1;rotatable=1;deletable=1;editable=1;locked=0;connectable=1;labelBackgroundColor=none;fillColor=#A8DADC;strokeColor=#457B9D;fontColor=#1D3557;gradientColor=#FFFFFF;" parent="1" vertex="1">
          <mxGeometry x="81.5" y="1690" width="135" height="85" as="geometry" />
        </mxCell>
        <mxCell id="PZYcjQ5eOafzSe-c74F2-19" value="&lt;font&gt;Deactivate Agents&lt;/font&gt;" style="text;html=1;align=center;verticalAlign=middle;resizable=1;points=[];autosize=1;strokeColor=none;fillColor=none;movable=1;rotatable=1;deletable=1;editable=1;locked=0;connectable=1;labelBackgroundColor=none;fontColor=#1D3557;fontSize=15;fontStyle=1" parent="PZYcjQ5eOafzSe-c74F2-18" vertex="1">
          <mxGeometry x="-5" y="31" width="140" height="30" as="geometry" />
        </mxCell>
        <mxCell id="PQpoZB7mIxRik_c6S127-59" style="edgeStyle=orthogonalEdgeStyle;rounded=0;orthogonalLoop=1;jettySize=auto;html=1;exitX=1;exitY=0.5;exitDx=0;exitDy=0;entryX=0;entryY=0;entryDx=0;entryDy=0;" parent="1" source="PZYcjQ5eOafzSe-c74F2-20" target="PZYcjQ5eOafzSe-c74F2-31" edge="1">
          <mxGeometry relative="1" as="geometry">
            <Array as="points">
              <mxPoint x="320" y="1505" />
              <mxPoint x="320" y="1608" />
            </Array>
          </mxGeometry>
        </mxCell>
        <mxCell id="PZYcjQ5eOafzSe-c74F2-20" value="3.1" style="swimlane;whiteSpace=wrap;html=1;rounded=1;startSize=23;labelBackgroundColor=none;fillColor=#A8DADC;strokeColor=#457B9D;fontColor=#1D3557;gradientColor=#FFFFFF;" parent="1" vertex="1">
          <mxGeometry x="74.75" y="1460" width="147.25" height="90" as="geometry" />
        </mxCell>
        <mxCell id="PZYcjQ5eOafzSe-c74F2-21" value="&lt;span&gt;Add/Activate Agent&lt;/span&gt;" style="text;html=1;align=center;verticalAlign=middle;resizable=0;points=[];autosize=1;strokeColor=none;fillColor=none;labelBackgroundColor=none;fontColor=#1D3557;fontSize=15;fontStyle=1" parent="PZYcjQ5eOafzSe-c74F2-20" vertex="1">
          <mxGeometry x="-2.75" y="39" width="150" height="30" as="geometry" />
        </mxCell>
        <mxCell id="PZYcjQ5eOafzSe-c74F2-28" value="&lt;span style=&quot;text-align: center; text-wrap-mode: nowrap;&quot;&gt;&lt;b style=&quot;&quot;&gt;&lt;font style=&quot;font-size: 15px;&quot;&gt;&amp;nbsp; &amp;nbsp; &amp;nbsp; &amp;nbsp;&lt;span style=&quot;white-space: pre;&quot;&gt;&#x9;&lt;/span&gt;&amp;nbsp; &amp;nbsp;Users Database&lt;/font&gt;&lt;/b&gt;&lt;/span&gt;" style="html=1;dashed=0;whiteSpace=wrap;shape=mxgraph.dfd.dataStoreID;align=left;spacingLeft=3;points=[[0,0],[0.5,0],[1,0],[0,0.5],[1,0.5],[0,1],[0.5,1],[1,1]];labelBackgroundColor=none;fillColor=#A8DADC;strokeColor=#457B9D;fontColor=#1D3557;gradientColor=#FFFFFF;gradientDirection=east;" parent="1" vertex="1">
          <mxGeometry x="380" y="1947.5" width="220" height="30" as="geometry" />
        </mxCell>
        <mxCell id="PZYcjQ5eOafzSe-c74F2-31" value="&lt;span style=&quot;text-align: center; text-wrap-mode: nowrap;&quot;&gt;&lt;font style=&quot;font-size: 15px;&quot;&gt;&lt;b&gt;&amp;nbsp; &amp;nbsp; &amp;nbsp; &amp;nbsp; &amp;nbsp; &amp;nbsp;Agents Database&lt;/b&gt;&lt;/font&gt;&lt;/span&gt;" style="html=1;dashed=0;whiteSpace=wrap;shape=mxgraph.dfd.dataStoreID;align=left;spacingLeft=3;points=[[0,0],[0.5,0],[1,0],[0,0.5],[1,0.5],[0,1],[0.5,1],[1,1]];labelBackgroundColor=none;fillColor=#A8DADC;strokeColor=#457B9D;fontColor=#1D3557;gradientColor=#FFFFFF;gradientDirection=east;" parent="1" vertex="1">
          <mxGeometry x="380" y="1607.5" width="220" height="30" as="geometry" />
        </mxCell>
        <mxCell id="PQpoZB7mIxRik_c6S127-60" style="edgeStyle=orthogonalEdgeStyle;rounded=0;orthogonalLoop=1;jettySize=auto;html=1;exitX=1;exitY=0.5;exitDx=0;exitDy=0;entryX=0;entryY=0.5;entryDx=0;entryDy=0;" parent="1" source="PZYcjQ5eOafzSe-c74F2-42" target="PZYcjQ5eOafzSe-c74F2-31" edge="1">
          <mxGeometry relative="1" as="geometry" />
        </mxCell>
        <mxCell id="PZYcjQ5eOafzSe-c74F2-42" value="3.2" style="swimlane;whiteSpace=wrap;html=1;rounded=1;startSize=23;movable=1;resizable=1;rotatable=1;deletable=1;editable=1;locked=0;connectable=1;labelBackgroundColor=none;fillColor=#A8DADC;strokeColor=#457B9D;fontColor=#1D3557;gradientColor=#FFFFFF;" parent="1" vertex="1">
          <mxGeometry x="86.5" y="1580" width="120" height="85" as="geometry" />
        </mxCell>
        <mxCell id="PZYcjQ5eOafzSe-c74F2-43" value="&lt;font&gt;View Agents&lt;/font&gt;" style="text;html=1;align=center;verticalAlign=middle;resizable=1;points=[];autosize=1;strokeColor=none;fillColor=none;movable=1;rotatable=1;deletable=1;editable=1;locked=0;connectable=1;labelBackgroundColor=none;fontColor=#1D3557;fontSize=15;fontStyle=1" parent="PZYcjQ5eOafzSe-c74F2-42" vertex="1">
          <mxGeometry x="5" y="39" width="110" height="30" as="geometry" />
        </mxCell>
        <mxCell id="PQpoZB7mIxRik_c6S127-63" style="edgeStyle=orthogonalEdgeStyle;rounded=0;orthogonalLoop=1;jettySize=auto;html=1;exitX=1;exitY=0.5;exitDx=0;exitDy=0;entryX=-0.005;entryY=0.586;entryDx=0;entryDy=0;entryPerimeter=0;" parent="1" source="PZYcjQ5eOafzSe-c74F2-47" target="PZYcjQ5eOafzSe-c74F2-28" edge="1">
          <mxGeometry relative="1" as="geometry">
            <Array as="points">
              <mxPoint x="206" y="1965" />
            </Array>
          </mxGeometry>
        </mxCell>
        <mxCell id="PZYcjQ5eOafzSe-c74F2-47" value="4.2" style="swimlane;whiteSpace=wrap;html=1;rounded=1;startSize=23;labelBackgroundColor=none;fillColor=#b0e3e6;strokeColor=#0e8088;gradientColor=#FFFFFF;" parent="1" vertex="1">
          <mxGeometry x="86.5" y="1920" width="120" height="85" as="geometry" />
        </mxCell>
        <mxCell id="PZYcjQ5eOafzSe-c74F2-48" value="&lt;span&gt;View Users&lt;/span&gt;" style="text;html=1;align=center;verticalAlign=middle;resizable=0;points=[];autosize=1;strokeColor=none;fillColor=none;labelBackgroundColor=none;fontColor=#1D3557;fontSize=15;fontStyle=1" parent="PZYcjQ5eOafzSe-c74F2-47" vertex="1">
          <mxGeometry x="11" y="39" width="100" height="30" as="geometry" />
        </mxCell>
        <mxCell id="PQpoZB7mIxRik_c6S127-1" value="" style="group" parent="1" vertex="1" connectable="0">
          <mxGeometry x="-340" y="1039" width="165" height="97.5" as="geometry" />
        </mxCell>
        <mxCell id="PQpoZB7mIxRik_c6S127-3" value="" style="group" parent="PQpoZB7mIxRik_c6S127-1" vertex="1" connectable="0">
          <mxGeometry y="12.5" width="165" height="85" as="geometry" />
        </mxCell>
        <mxCell id="J3J6T2Nlb2btmMFrzNH1-28" value="1" style="swimlane;whiteSpace=wrap;html=1;rounded=1;startSize=13;labelBackgroundColor=none;fillColor=#A8DADC;strokeColor=#457B9D;fontColor=#1D3557;gradientColor=#FFFFFF;" parent="PQpoZB7mIxRik_c6S127-3" vertex="1">
          <mxGeometry width="160" height="85" as="geometry" />
        </mxCell>
        <mxCell id="J3J6T2Nlb2btmMFrzNH1-39" value="&lt;font&gt;Check Blacklisted IP&#39;s&lt;/font&gt;" style="text;html=1;align=center;verticalAlign=middle;resizable=0;points=[];autosize=1;strokeColor=none;fillColor=none;labelBackgroundColor=none;fontColor=#1D3557;fontSize=15;fontStyle=1" parent="PQpoZB7mIxRik_c6S127-3" vertex="1">
          <mxGeometry x="-5" y="27.5" width="170" height="30" as="geometry" />
        </mxCell>
        <mxCell id="PQpoZB7mIxRik_c6S127-5" value="" style="group" parent="1" vertex="1" connectable="0">
          <mxGeometry x="-340" y="1570" width="165" height="85" as="geometry" />
        </mxCell>
        <mxCell id="PZYcjQ5eOafzSe-c74F2-22" value="3" style="swimlane;whiteSpace=wrap;html=1;rounded=1;startSize=23;labelBackgroundColor=none;fillColor=#A8DADC;strokeColor=#457B9D;fontColor=#1D3557;gradientColor=#FFFFFF;" parent="PQpoZB7mIxRik_c6S127-5" vertex="1">
          <mxGeometry width="160" height="85" as="geometry" />
        </mxCell>
        <mxCell id="PZYcjQ5eOafzSe-c74F2-27" value="&lt;font style=&quot;font-size: 15px;&quot;&gt;&lt;b style=&quot;&quot;&gt;Agent Management&lt;/b&gt;&lt;/font&gt;" style="text;html=1;align=center;verticalAlign=middle;resizable=0;points=[];autosize=1;strokeColor=none;fillColor=none;labelBackgroundColor=none;fontColor=#1D3557;" parent="PQpoZB7mIxRik_c6S127-5" vertex="1">
          <mxGeometry y="40" width="160" height="30" as="geometry" />
        </mxCell>
        <mxCell id="PQpoZB7mIxRik_c6S127-9" value="" style="group" parent="1" vertex="1" connectable="0">
          <mxGeometry x="-620" y="1900" width="160" height="100" as="geometry" />
        </mxCell>
        <mxCell id="J3J6T2Nlb2btmMFrzNH1-2" value="1" style="swimlane;whiteSpace=wrap;html=1;rounded=1;labelBackgroundColor=none;fillColor=#A8DADC;strokeColor=#457B9D;fontColor=#1D3557;gradientColor=#FFFFFF;" parent="PQpoZB7mIxRik_c6S127-9" vertex="1">
          <mxGeometry width="160" height="100" as="geometry" />
        </mxCell>
        <mxCell id="J3J6T2Nlb2btmMFrzNH1-3" value="&lt;font style=&quot;font-size: 18px;&quot;&gt;&lt;b style=&quot;&quot;&gt;Login&lt;/b&gt;&lt;/font&gt;" style="text;html=1;align=center;verticalAlign=middle;resizable=0;points=[];autosize=1;strokeColor=none;fillColor=none;labelBackgroundColor=none;fontColor=#1D3557;" parent="PQpoZB7mIxRik_c6S127-9" vertex="1">
          <mxGeometry x="45" y="37" width="70" height="40" as="geometry" />
        </mxCell>
        <mxCell id="PQpoZB7mIxRik_c6S127-19" value="" style="endArrow=classic;html=1;rounded=0;dashed=1;entryX=0.839;entryY=-0.043;entryDx=0;entryDy=0;labelBackgroundColor=none;strokeColor=#457B9D;fontColor=default;exitX=0.75;exitY=1;exitDx=0;exitDy=0;entryPerimeter=0;" parent="1" edge="1">
          <mxGeometry width="50" height="50" relative="1" as="geometry">
            <mxPoint x="-510" y="2002.58" as="sourcePoint" />
            <mxPoint x="-509.31999999999994" y="2150" as="targetPoint" />
          </mxGeometry>
        </mxCell>
        <mxCell id="PQpoZB7mIxRik_c6S127-20" value="&lt;font style=&quot;font-size: 15px;&quot;&gt;&lt;b&gt;Invalid Crendentials&lt;/b&gt;&lt;/font&gt;" style="edgeLabel;html=1;align=center;verticalAlign=middle;resizable=0;points=[];labelBackgroundColor=none;fontColor=#1D3557;" parent="PQpoZB7mIxRik_c6S127-19" vertex="1" connectable="0">
          <mxGeometry relative="1" as="geometry">
            <mxPoint x="5" y="22" as="offset" />
          </mxGeometry>
        </mxCell>
        <mxCell id="PQpoZB7mIxRik_c6S127-21" value="" style="endArrow=classic;html=1;rounded=0;exitX=0.151;exitY=0.031;exitDx=0;exitDy=0;labelBackgroundColor=none;strokeColor=#457B9D;fontColor=default;exitPerimeter=0;" parent="1" source="J3J6T2Nlb2btmMFrzNH1-5" edge="1">
          <mxGeometry width="50" height="50" relative="1" as="geometry">
            <mxPoint x="-620" y="2060" as="sourcePoint" />
            <mxPoint x="-580" y="2000" as="targetPoint" />
          </mxGeometry>
        </mxCell>
        <mxCell id="PQpoZB7mIxRik_c6S127-22" value="&lt;font style=&quot;font-size: 15px;&quot;&gt;&lt;b&gt;User Credentials&lt;/b&gt;&lt;/font&gt;" style="edgeLabel;html=1;align=center;verticalAlign=middle;resizable=0;points=[];rotation=0;labelBackgroundColor=none;fontColor=#1D3557;" parent="PQpoZB7mIxRik_c6S127-21" vertex="1" connectable="0">
          <mxGeometry relative="1" as="geometry">
            <mxPoint y="-9" as="offset" />
          </mxGeometry>
        </mxCell>
        <mxCell id="PQpoZB7mIxRik_c6S127-23" value="" style="endArrow=classic;html=1;rounded=0;entryX=0.5;entryY=0;entryDx=0;entryDy=0;exitX=0.5;exitY=1;exitDx=0;exitDy=0;labelBackgroundColor=none;strokeColor=#457B9D;fontColor=default;" parent="1" source="J3J6T2Nlb2btmMFrzNH1-4" target="J3J6T2Nlb2btmMFrzNH1-2" edge="1">
          <mxGeometry width="50" height="50" relative="1" as="geometry">
            <mxPoint x="-590" y="1820" as="sourcePoint" />
            <mxPoint x="-450" y="1820" as="targetPoint" />
            <Array as="points" />
          </mxGeometry>
        </mxCell>
        <mxCell id="PQpoZB7mIxRik_c6S127-24" value="&lt;font style=&quot;font-size: 15px;&quot;&gt;&lt;b&gt;Validate Credentials&lt;/b&gt;&lt;/font&gt;" style="edgeLabel;html=1;align=center;verticalAlign=middle;resizable=0;points=[];rotation=0;labelBackgroundColor=none;fontColor=#1D3557;" parent="PQpoZB7mIxRik_c6S127-23" vertex="1" connectable="0">
          <mxGeometry y="11" relative="1" as="geometry">
            <mxPoint as="offset" />
          </mxGeometry>
        </mxCell>
        <mxCell id="PQpoZB7mIxRik_c6S127-25" style="edgeStyle=orthogonalEdgeStyle;rounded=0;orthogonalLoop=1;jettySize=auto;html=1;exitX=1;exitY=0.25;exitDx=0;exitDy=0;entryX=-0.012;entryY=0.707;entryDx=0;entryDy=0;entryPerimeter=0;fillColor=#dae8fc;strokeColor=#6c8ebf;" parent="1" source="J3J6T2Nlb2btmMFrzNH1-2" target="J3J6T2Nlb2btmMFrzNH1-39" edge="1">
          <mxGeometry relative="1" as="geometry">
            <Array as="points">
              <mxPoint x="-410" y="1925" />
              <mxPoint x="-410" y="1100" />
            </Array>
          </mxGeometry>
        </mxCell>
        <mxCell id="PQpoZB7mIxRik_c6S127-26" style="edgeStyle=orthogonalEdgeStyle;rounded=0;orthogonalLoop=1;jettySize=auto;html=1;exitX=1;exitY=0.25;exitDx=0;exitDy=0;entryX=0;entryY=0.5;entryDx=0;entryDy=0;fillColor=#dae8fc;strokeColor=#6c8ebf;" parent="1" source="J3J6T2Nlb2btmMFrzNH1-2" target="J3J6T2Nlb2btmMFrzNH1-25" edge="1">
          <mxGeometry relative="1" as="geometry" />
        </mxCell>
        <mxCell id="PQpoZB7mIxRik_c6S127-27" style="edgeStyle=orthogonalEdgeStyle;rounded=0;orthogonalLoop=1;jettySize=auto;html=1;entryX=0;entryY=0.5;entryDx=0;entryDy=0;fillColor=#dae8fc;strokeColor=#6c8ebf;" parent="1" target="PZYcjQ5eOafzSe-c74F2-22" edge="1">
          <mxGeometry relative="1" as="geometry">
            <mxPoint x="-460" y="1930" as="sourcePoint" />
            <Array as="points">
              <mxPoint x="-460" y="1930" />
              <mxPoint x="-380" y="1930" />
              <mxPoint x="-380" y="1612" />
            </Array>
          </mxGeometry>
        </mxCell>
        <mxCell id="PQpoZB7mIxRik_c6S127-28" style="edgeStyle=orthogonalEdgeStyle;rounded=0;orthogonalLoop=1;jettySize=auto;html=1;exitX=1;exitY=0.5;exitDx=0;exitDy=0;fillColor=#dae8fc;strokeColor=#6c8ebf;" parent="1" source="J3J6T2Nlb2btmMFrzNH1-2" edge="1">
          <mxGeometry relative="1" as="geometry">
            <mxPoint x="-340" y="1950" as="targetPoint" />
          </mxGeometry>
        </mxCell>
        <mxCell id="PQpoZB7mIxRik_c6S127-29" style="edgeStyle=orthogonalEdgeStyle;rounded=0;orthogonalLoop=1;jettySize=auto;html=1;exitX=1;exitY=0.75;exitDx=0;exitDy=0;entryX=0;entryY=0.5;entryDx=0;entryDy=0;fillColor=#dae8fc;strokeColor=#6c8ebf;" parent="1" edge="1">
          <mxGeometry relative="1" as="geometry">
            <mxPoint x="-460" y="1967.48" as="sourcePoint" />
            <mxPoint x="-340" y="2149.98" as="targetPoint" />
            <Array as="points">
              <mxPoint x="-370" y="1967.48" />
              <mxPoint x="-370" y="2150.48" />
            </Array>
          </mxGeometry>
        </mxCell>
        <mxCell id="PQpoZB7mIxRik_c6S127-30" style="edgeStyle=orthogonalEdgeStyle;rounded=0;orthogonalLoop=1;jettySize=auto;html=1;entryX=0;entryY=0.5;entryDx=0;entryDy=0;fillColor=#dae8fc;strokeColor=#6c8ebf;" parent="1" target="PZYcjQ5eOafzSe-c74F2-1" edge="1">
          <mxGeometry relative="1" as="geometry">
            <mxPoint x="-460" y="1960" as="sourcePoint" />
            <Array as="points">
              <mxPoint x="-460" y="1960" />
              <mxPoint x="-380" y="1960" />
              <mxPoint x="-380" y="2272" />
            </Array>
          </mxGeometry>
        </mxCell>
        <mxCell id="PQpoZB7mIxRik_c6S127-31" style="edgeStyle=orthogonalEdgeStyle;rounded=0;orthogonalLoop=1;jettySize=auto;html=1;entryX=0;entryY=0.5;entryDx=0;entryDy=0;fillColor=#dae8fc;strokeColor=#6c8ebf;" parent="1" target="J3J6T2Nlb2btmMFrzNH1-13" edge="1">
          <mxGeometry relative="1" as="geometry">
            <mxPoint x="-460" y="1970" as="sourcePoint" />
          </mxGeometry>
        </mxCell>
        <mxCell id="PQpoZB7mIxRik_c6S127-32" style="edgeStyle=orthogonalEdgeStyle;rounded=0;orthogonalLoop=1;jettySize=auto;html=1;entryX=0;entryY=0.75;entryDx=0;entryDy=0;fillColor=#dae8fc;strokeColor=#6c8ebf;" parent="1" target="kPvUlYXXvgPYuYJNT18Q-3" edge="1">
          <mxGeometry relative="1" as="geometry">
            <mxPoint x="-460" y="1975" as="sourcePoint" />
            <Array as="points">
              <mxPoint x="-410" y="1975" />
              <mxPoint x="-410" y="2514" />
            </Array>
          </mxGeometry>
        </mxCell>
        <mxCell id="PQpoZB7mIxRik_c6S127-33" style="edgeStyle=orthogonalEdgeStyle;rounded=0;orthogonalLoop=1;jettySize=auto;html=1;entryX=0;entryY=0.5;entryDx=0;entryDy=0;fillColor=#dae8fc;strokeColor=#6c8ebf;" parent="1" target="kPvUlYXXvgPYuYJNT18Q-5" edge="1">
          <mxGeometry relative="1" as="geometry">
            <mxPoint x="-460" y="1980" as="sourcePoint" />
            <Array as="points">
              <mxPoint x="-460" y="1980" />
              <mxPoint x="-420" y="1980" />
              <mxPoint x="-420" y="2603" />
            </Array>
          </mxGeometry>
        </mxCell>
        <mxCell id="PQpoZB7mIxRik_c6S127-34" style="edgeStyle=orthogonalEdgeStyle;rounded=0;orthogonalLoop=1;jettySize=auto;html=1;entryX=0;entryY=0.5;entryDx=0;entryDy=0;fillColor=#dae8fc;strokeColor=#6c8ebf;" parent="1" target="J3J6T2Nlb2btmMFrzNH1-68" edge="1">
          <mxGeometry relative="1" as="geometry">
            <mxPoint x="-460" y="1990" as="sourcePoint" />
            <mxPoint x="-425" y="2712.5" as="targetPoint" />
            <Array as="points">
              <mxPoint x="-460" y="1991" />
              <mxPoint x="-430" y="1991" />
              <mxPoint x="-430" y="2713" />
            </Array>
          </mxGeometry>
        </mxCell>
        <mxCell id="PQpoZB7mIxRik_c6S127-35" style="edgeStyle=orthogonalEdgeStyle;rounded=0;orthogonalLoop=1;jettySize=auto;html=1;exitX=1;exitY=0.25;exitDx=0;exitDy=0;entryX=0;entryY=0.5;entryDx=0;entryDy=0;" parent="1" edge="1">
          <mxGeometry relative="1" as="geometry">
            <mxPoint x="-180" y="1084.95" as="sourcePoint" />
            <mxPoint x="90" y="1054.7" as="targetPoint" />
            <Array as="points">
              <mxPoint x="-50" y="1085" />
              <mxPoint x="-50" y="1055" />
            </Array>
          </mxGeometry>
        </mxCell>
        <mxCell id="PQpoZB7mIxRik_c6S127-36" style="edgeStyle=orthogonalEdgeStyle;rounded=0;orthogonalLoop=1;jettySize=auto;html=1;" parent="1" edge="1">
          <mxGeometry relative="1" as="geometry">
            <mxPoint x="-180" y="1120" as="sourcePoint" />
            <mxPoint x="90" y="1160" as="targetPoint" />
            <Array as="points">
              <mxPoint x="-180" y="1120" />
              <mxPoint x="-50" y="1120" />
              <mxPoint x="-50" y="1160" />
            </Array>
          </mxGeometry>
        </mxCell>
        <mxCell id="PQpoZB7mIxRik_c6S127-40" style="edgeStyle=orthogonalEdgeStyle;rounded=0;orthogonalLoop=1;jettySize=auto;html=1;" parent="1" edge="1">
          <mxGeometry relative="1" as="geometry">
            <mxPoint x="-180" y="1600" as="sourcePoint" />
            <mxPoint x="70" y="1490" as="targetPoint" />
            <Array as="points">
              <mxPoint x="-180" y="1600" />
              <mxPoint x="-40" y="1600" />
              <mxPoint x="-40" y="1490" />
            </Array>
          </mxGeometry>
        </mxCell>
        <mxCell id="PQpoZB7mIxRik_c6S127-42" style="edgeStyle=orthogonalEdgeStyle;rounded=0;orthogonalLoop=1;jettySize=auto;html=1;exitX=1;exitY=0.75;exitDx=0;exitDy=0;" parent="1" source="PZYcjQ5eOafzSe-c74F2-22" edge="1">
          <mxGeometry relative="1" as="geometry">
            <mxPoint x="80" y="1740" as="targetPoint" />
            <Array as="points">
              <mxPoint x="-40" y="1634" />
              <mxPoint x="-40" y="1739" />
            </Array>
          </mxGeometry>
        </mxCell>
        <mxCell id="PQpoZB7mIxRik_c6S127-48" style="edgeStyle=orthogonalEdgeStyle;rounded=0;orthogonalLoop=1;jettySize=auto;html=1;exitX=1;exitY=0.5;exitDx=0;exitDy=0;entryX=0;entryY=0.5;entryDx=0;entryDy=0;" parent="1" source="PZYcjQ5eOafzSe-c74F2-22" target="PZYcjQ5eOafzSe-c74F2-42" edge="1">
          <mxGeometry relative="1" as="geometry">
            <Array as="points">
              <mxPoint x="-40" y="1612" />
              <mxPoint x="-40" y="1622" />
            </Array>
          </mxGeometry>
        </mxCell>
        <mxCell id="PQpoZB7mIxRik_c6S127-65" value="Write IP" style="text;html=1;align=center;verticalAlign=middle;resizable=0;points=[];autosize=1;strokeColor=none;fillColor=none;fontSize=14;fontStyle=3" parent="1" vertex="1">
          <mxGeometry x="225" y="1020" width="70" height="30" as="geometry" />
        </mxCell>
        <mxCell id="PQpoZB7mIxRik_c6S127-66" value="Delete IP" style="text;html=1;align=center;verticalAlign=middle;resizable=0;points=[];autosize=1;strokeColor=none;fillColor=none;fontSize=14;fontStyle=3" parent="1" vertex="1">
          <mxGeometry x="220" y="1128" width="80" height="30" as="geometry" />
        </mxCell>
        <mxCell id="PQpoZB7mIxRik_c6S127-67" style="edgeStyle=orthogonalEdgeStyle;rounded=0;orthogonalLoop=1;jettySize=auto;html=1;exitX=1;exitY=0.5;exitDx=0;exitDy=0;entryX=0;entryY=0.5;entryDx=0;entryDy=0;" parent="1" source="J3J6T2Nlb2btmMFrzNH1-28" target="J3J6T2Nlb2btmMFrzNH1-49" edge="1">
          <mxGeometry relative="1" as="geometry">
            <Array as="points">
              <mxPoint x="-180" y="1100" />
            </Array>
          </mxGeometry>
        </mxCell>
        <mxCell id="PQpoZB7mIxRik_c6S127-68" style="edgeStyle=orthogonalEdgeStyle;rounded=0;orthogonalLoop=1;jettySize=auto;html=1;entryX=0;entryY=0.5;entryDx=0;entryDy=0;" parent="1" target="J3J6T2Nlb2btmMFrzNH1-45" edge="1">
          <mxGeometry relative="1" as="geometry">
            <mxPoint x="-179" y="1325" as="sourcePoint" />
            <Array as="points">
              <mxPoint x="-179" y="1325" />
            </Array>
          </mxGeometry>
        </mxCell>
        <mxCell id="PQpoZB7mIxRik_c6S127-69" value="Read IPs" style="text;html=1;align=center;verticalAlign=middle;resizable=0;points=[];autosize=1;strokeColor=none;fillColor=none;fontSize=14;fontStyle=3" parent="1" vertex="1">
          <mxGeometry x="220" y="1078" width="80" height="30" as="geometry" />
        </mxCell>
        <mxCell id="PQpoZB7mIxRik_c6S127-70" value="&lt;div&gt;&lt;br&gt;&lt;/div&gt;&lt;div&gt;Activate&amp;nbsp;&lt;/div&gt;&lt;div&gt;Agents&lt;/div&gt;" style="text;html=1;align=center;verticalAlign=middle;resizable=0;points=[];autosize=1;strokeColor=none;fillColor=none;fontSize=14;fontStyle=3" parent="1" vertex="1">
          <mxGeometry x="233.25" y="1440" width="80" height="60" as="geometry" />
        </mxCell>
        <mxCell id="PQpoZB7mIxRik_c6S127-71" value="Read Agents" style="text;html=1;align=center;verticalAlign=middle;resizable=0;points=[];autosize=1;strokeColor=none;fillColor=none;fontSize=14;fontStyle=3" parent="1" vertex="1">
          <mxGeometry x="223.25" y="1597.5" width="100" height="30" as="geometry" />
        </mxCell>
        <mxCell id="PQpoZB7mIxRik_c6S127-72" value="Deactivate&amp;nbsp;&lt;div&gt;Agent&lt;/div&gt;" style="text;html=1;align=center;verticalAlign=middle;resizable=0;points=[];autosize=1;strokeColor=none;fillColor=none;fontSize=14;fontStyle=3" parent="1" vertex="1">
          <mxGeometry x="228.25" y="1740" width="90" height="50" as="geometry" />
        </mxCell>
        <mxCell id="PQpoZB7mIxRik_c6S127-73" value="&lt;div&gt;Add Users&lt;/div&gt;" style="text;html=1;align=center;verticalAlign=middle;resizable=0;points=[];autosize=1;strokeColor=none;fillColor=none;fontSize=14;fontStyle=3" parent="1" vertex="1">
          <mxGeometry x="221.5" y="1825" width="90" height="30" as="geometry" />
        </mxCell>
        <mxCell id="PQpoZB7mIxRik_c6S127-74" value="&lt;div&gt;Read Users&lt;/div&gt;" style="text;html=1;align=center;verticalAlign=middle;resizable=0;points=[];autosize=1;strokeColor=none;fillColor=none;fontSize=14;fontStyle=3" parent="1" vertex="1">
          <mxGeometry x="216.5" y="1935" width="100" height="30" as="geometry" />
        </mxCell>
        <mxCell id="PQpoZB7mIxRik_c6S127-75" value="Delete Users" style="text;html=1;align=center;verticalAlign=middle;resizable=0;points=[];autosize=1;strokeColor=none;fillColor=none;fontSize=14;fontStyle=3" parent="1" vertex="1">
          <mxGeometry x="216.5" y="2045" width="100" height="30" as="geometry" />
        </mxCell>
        <mxCell id="PQpoZB7mIxRik_c6S127-76" value="&lt;div&gt;&lt;span style=&quot;background-color: transparent; color: light-dark(rgb(0, 0, 0), rgb(255, 255, 255));&quot;&gt;Read Logs&lt;/span&gt;&lt;/div&gt;" style="text;html=1;align=center;verticalAlign=middle;resizable=0;points=[];autosize=1;strokeColor=none;fillColor=none;fontSize=14;fontStyle=3" parent="1" vertex="1">
          <mxGeometry x="-70" y="2130" width="90" height="30" as="geometry" />
        </mxCell>
        <mxCell id="PQpoZB7mIxRik_c6S127-77" value="&lt;div&gt;Search Logs&lt;/div&gt;" style="text;html=1;align=center;verticalAlign=middle;resizable=0;points=[];autosize=1;strokeColor=none;fillColor=none;fontSize=14;fontStyle=3" parent="1" vertex="1">
          <mxGeometry x="-75" y="2245" width="100" height="30" as="geometry" />
        </mxCell>
        <mxCell id="PQpoZB7mIxRik_c6S127-78" value="Read Logs" style="text;html=1;align=center;verticalAlign=middle;resizable=0;points=[];autosize=1;strokeColor=none;fillColor=none;fontSize=14;fontStyle=3" parent="1" vertex="1">
          <mxGeometry x="-70" y="2350" width="90" height="30" as="geometry" />
        </mxCell>
        <mxCell id="PQpoZB7mIxRik_c6S127-81" value="Write IP" style="text;html=1;align=center;verticalAlign=middle;resizable=0;points=[];autosize=1;strokeColor=none;fillColor=none;fontSize=14;fontStyle=3" parent="1" vertex="1">
          <mxGeometry x="231.5" y="1250" width="70" height="30" as="geometry" />
        </mxCell>
        <mxCell id="PQpoZB7mIxRik_c6S127-82" value="Delete IP" style="text;html=1;align=center;verticalAlign=middle;resizable=0;points=[];autosize=1;strokeColor=none;fillColor=none;fontSize=14;fontStyle=3" parent="1" vertex="1">
          <mxGeometry x="226.5" y="1360" width="80" height="30" as="geometry" />
        </mxCell>
        <mxCell id="PQpoZB7mIxRik_c6S127-83" value="Read IPs" style="text;html=1;align=center;verticalAlign=middle;resizable=0;points=[];autosize=1;strokeColor=none;fillColor=none;fontSize=14;fontStyle=3" parent="1" vertex="1">
          <mxGeometry x="226.5" y="1298" width="80" height="30" as="geometry" />
        </mxCell>
        <mxCell id="2uEL9TIn6dBaThZnzO8R-1" value="&lt;b&gt;Read Agents&lt;/b&gt;" style="text;html=1;align=center;verticalAlign=middle;resizable=0;points=[];autosize=1;strokeColor=none;fillColor=none;fontSize=14;" vertex="1" parent="1">
          <mxGeometry x="55" y="2460" width="110" height="30" as="geometry" />
        </mxCell>
        <mxCell id="2uEL9TIn6dBaThZnzO8R-2" value="&lt;b&gt;Read Agents&lt;/b&gt;" style="text;html=1;align=center;verticalAlign=middle;resizable=0;points=[];autosize=1;strokeColor=none;fillColor=none;fontSize=14;" vertex="1" parent="1">
          <mxGeometry x="55" y="2570" width="110" height="30" as="geometry" />
        </mxCell>
      </root>
    </mxGraphModel>
  </diagram>
</mxfile>
